<svg xmlns="http://www.w3.org/2000/svg" width="940" height="140" viewBox="0 0 940 140" version="1.1"><path d="" stroke="none" fill="#644434" fill-rule="evenodd"/><path d="M 722.122 2.374 C 712.776 5.755, 709.339 18.222, 715.294 27.138 C 719.484 33.411, 729.496 35.909, 737.329 32.636 C 747.006 28.593, 749.802 15.375, 742.851 6.537 C 738.865 1.471, 729.705 -0.369, 722.122 2.374 M 374.249 58.250 C 374.740 83.067, 375.365 86.857, 380.713 97.417 C 383.602 103.122, 391.847 112.213, 397.231 115.632 C 412.236 125.159, 436.469 125.877, 453.403 117.296 C 460.267 113.817, 469.160 105.062, 472.786 98.211 C 478.619 87.192, 479.250 83.570, 479.751 58.250 L 480.211 35 427 35 L 373.789 35 374.249 58.250 M 484.488 36.170 C 484.198 36.926, 484.082 47.660, 484.230 60.023 L 484.500 82.500 496.531 82.500 C 507.471 82.500, 509.011 82.268, 513.522 79.945 C 517.042 78.132, 519.355 75.978, 521.491 72.524 C 524.224 68.103, 524.500 66.871, 524.500 59.078 C 524.500 48.279, 522.016 43.137, 514.580 38.541 C 509.914 35.657, 509.023 35.482, 497.338 35.147 C 487.560 34.868, 484.907 35.079, 484.488 36.170 M 37 41.829 C 33.975 42.835, 30.128 44.374, 28.451 45.250 C 23.328 47.927, 16.943 54.890, 14.151 60.845 C 11.837 65.782, 11.500 67.770, 11.500 76.500 C 11.500 85.230, 11.837 87.218, 14.151 92.155 C 17.566 99.439, 23.863 105.535, 31.858 109.298 C 43.188 114.629, 59.992 114.242, 72.626 108.359 C 81.672 104.147, 89.702 93.695, 91.532 83.750 L 92.223 80 78.361 80 L 64.500 80 61.743 83.455 C 57.228 89.114, 48.971 89.999, 43.858 85.371 C 39.273 81.222, 39.431 72.364, 44.180 67.308 C 48.417 62.798, 57.879 63.488, 61.900 68.600 C 63.808 71.025, 64.008 71.052, 77.805 70.778 L 91.777 70.500 89.991 64.731 C 86.883 54.693, 80.049 47.441, 69.655 43.150 C 61.354 39.723, 45.291 39.073, 37 41.829 M 121.630 41.585 C 112.206 44.576, 105.271 51.080, 102.977 59.080 C 100.931 66.213, 100.558 66, 115.099 66 L 128.198 66 131 63 C 135.774 57.890, 144 60.025, 144 66.374 C 144 68.741, 143.956 68.749, 129.750 69.195 C 113.445 69.706, 108.699 71.162, 103.305 77.306 C 92.909 89.146, 98.706 106.952, 114.446 111.527 C 125.170 114.645, 140.087 112.025, 146.634 105.874 L 148.794 103.845 149.974 107.423 L 151.155 111 162.078 111 L 173 111 172.994 87.750 C 172.991 74.963, 172.529 62.845, 171.967 60.823 C 169.940 53.522, 165.047 47.794, 157.603 44.008 C 150.964 40.632, 150.250 40.491, 138.603 40.270 C 129.908 40.104, 125.128 40.475, 121.630 41.585 M 220.836 41.861 C 218.271 42.895, 214.864 44.673, 213.265 45.811 L 210.359 47.881 209.103 44.407 L 207.847 40.934 197.173 41.217 L 186.500 41.500 186.240 89.250 L 185.981 137 201.490 137 L 217 137 217 123.393 C 217 111.231, 217.173 109.852, 218.629 110.411 C 227.392 113.774, 241.434 113.704, 249.176 110.259 C 259.623 105.610, 267.185 95.162, 268.835 83.097 C 271.245 65.479, 263.319 48.907, 249.599 42.874 C 242.417 39.717, 227.460 39.190, 220.836 41.861 M 315.340 41.435 C 313.052 42.151, 309.832 43.695, 308.185 44.868 C 304.221 47.691, 303.393 47.567, 302.138 43.966 L 301.080 40.932 290.290 41.216 L 279.500 41.500 279.240 89.250 L 278.981 137 294.490 137 L 310 137 310 122.974 L 310 108.949 313.250 110.724 C 315.779 112.106, 318.829 112.500, 327 112.500 C 336.476 112.500, 338.056 112.227, 343.203 109.700 C 355.404 103.708, 362.273 91.972, 362.341 77 C 362.423 59.101, 353.645 45.942, 338.652 41.489 C 332.577 39.685, 321.021 39.658, 315.340 41.435 M 563 41.829 C 559.975 42.835, 556.128 44.374, 554.451 45.250 C 549.328 47.927, 542.943 54.890, 540.151 60.845 C 537.837 65.782, 537.500 67.770, 537.500 76.500 C 537.500 85.230, 537.837 87.218, 540.151 92.155 C 543.566 99.439, 549.863 105.535, 557.858 109.298 C 569.188 114.629, 585.992 114.242, 598.626 108.359 C 607.672 104.147, 615.702 93.695, 617.532 83.750 L 618.223 80 604.361 80 L 590.500 80 587.743 83.455 C 583.228 89.114, 574.971 89.999, 569.858 85.371 C 565.273 81.222, 565.431 72.364, 570.180 67.308 C 574.417 62.798, 583.879 63.488, 587.900 68.600 C 589.808 71.025, 590.008 71.052, 603.805 70.778 L 617.777 70.500 615.991 64.731 C 612.883 54.693, 606.049 47.441, 595.655 43.150 C 587.354 39.723, 571.291 39.073, 563 41.829 M 651.746 41.034 C 632.964 45.721, 621.258 62.645, 623.900 81.296 C 625.152 90.140, 628.220 96.316, 634.482 102.596 C 641.246 109.381, 648.319 112.083, 661.065 112.749 C 675.270 113.492, 687.386 109.441, 695.198 101.336 C 698.993 97.399, 703.299 89.016, 704.488 83.250 L 705.159 80 691.329 80 L 677.500 80 674.743 83.455 C 669.926 89.493, 661.178 90.012, 656.060 84.564 C 652.945 81.248, 652.321 74.598, 654.695 70.025 C 658.221 63.235, 668.577 62.195, 674.072 68.077 L 676.802 71 690.513 71 L 704.223 71 703.527 67.250 C 701.722 57.511, 692.395 46.857, 682.202 42.887 C 675.808 40.398, 658.512 39.345, 651.746 41.034 M 794.703 41.385 C 792.614 42.162, 789.152 43.957, 787.009 45.375 L 783.113 47.954 781.855 44.477 L 780.598 41 769.799 41 L 759 41 759 76 L 759 111 774 111 L 789 111 789 91.649 C 789 80.716, 789.457 70.988, 790.050 69.287 C 791.928 63.899, 798.500 62.409, 802.545 66.455 C 804.996 68.905, 805 68.943, 805 89.955 L 805 111 820 111 L 835 111 835 87.182 C 835 60.112, 834.295 56.041, 828.415 49.172 C 822.871 42.695, 818.143 40.690, 807.500 40.302 C 801.470 40.082, 797.247 40.439, 794.703 41.385 M 871.024 41.603 C 863.753 43.557, 858.296 46.870, 853.144 52.460 C 846.643 59.512, 844.668 64.824, 844.577 75.500 C 844.469 88.178, 846.568 93.745, 854.411 101.588 C 862.169 109.344, 868.728 112.025, 881.725 112.753 C 902.236 113.902, 916.985 106.836, 924.052 92.474 C 926.199 88.111, 926.500 86.149, 926.500 76.500 C 926.500 65.865, 926.386 65.290, 923.066 59.166 C 918.150 50.099, 910.439 44.271, 899.500 41.356 C 892.962 39.614, 877.942 39.744, 871.024 41.603 M 714.667 41.667 C 714.300 42.033, 714 57.783, 714 76.667 L 714 111 729.500 111 L 745 111 745 76 L 745 41 730.167 41 C 722.008 41, 715.033 41.300, 714.667 41.667 M 492 58.384 L 492 75 498.032 75 C 505.348 75, 509.723 73.306, 513.257 69.107 C 518.065 63.392, 518.102 54.651, 513.341 48.994 C 509.766 44.745, 506.584 43.326, 498.750 42.489 L 492 41.767 492 58.384 M 384.159 63.750 L 384.506 82.500 387.897 89.741 C 395.102 105.126, 408.344 113.118, 426.821 113.234 C 439.754 113.315, 448.881 109.997, 457.242 102.177 C 467.169 92.891, 469.972 83.893, 469.988 61.250 L 470 45 426.906 45 L 383.813 45 384.159 63.750 M 222.315 65.464 C 214.946 68.669, 213.785 81.550, 220.442 86.246 C 222.919 87.994, 228.147 88.798, 231.324 87.921 C 235.869 86.666, 239.060 82.975, 239.695 78.238 C 241.053 68.115, 231.820 61.330, 222.315 65.464 M 315.321 65.613 C 311.161 67.665, 308.606 73.027, 309.305 78.238 C 311.155 92.027, 331.165 91.591, 332.727 77.728 C 333.880 67.503, 324.594 61.040, 315.321 65.613 M 880.014 65.752 C 875.891 67.819, 874.035 71.083, 874.015 76.300 C 873.986 83.815, 878.894 88.513, 886.548 88.296 C 890.881 88.173, 893.729 86.492, 896.050 82.686 C 899.660 76.765, 898.108 70.337, 892.088 66.280 C 888.034 63.548, 884.698 63.402, 880.014 65.752 M 129 86 C 126.472 88.528, 126.490 89.490, 129.116 92.116 C 133.395 96.395, 144 91.998, 144 85.944 C 144 84.218, 143.271 84, 137.500 84 C 132.333 84, 130.590 84.410, 129 86 M 374 133 L 374 138 427 138 L 480 138 480 133 L 480 128 427 128 L 374 128 374 133" stroke="none" fill="#643c34" fill-rule="evenodd"/></svg>